HIERARCHY
ROOT Hips
{
	OFFSET 0.000000 0.000000 0.000000
	CHANNELS 6 Xposition Yposition Zposition Yrotation Xrotation Zrotation
	JOINT Chest
	{
		OFFSET 0.000000 -0.009281 11.569106
		CHANNELS 3 Yrotation Xrotation Zrotation
		JOINT Chest2
		{
			OFFSET -0.000000 0.016865 9.269641
			CHANNELS 3 Yrotation Xrotation Zrotation
			JOINT Chest3
			{
				OFFSET -0.000000 0.000001 8.374491
				CHANNELS 3 Yrotation Xrotation Zrotation
				JOINT Chest4
				{
					OFFSET -0.000000 0.000001 8.374493
					CHANNELS 3 Yrotation Xrotation Zrotation
					JOINT Neck
					{
						OFFSET -0.000000 0.000002 12.152554
						CHANNELS 3 Yrotation Xrotation Zrotation
						JOINT Head
						{
							OFFSET -0.000000 0.040101 7.802319
							CHANNELS 3 Yrotation Xrotation Zrotation
							End Site
							{
								OFFSET -0.000000 0.020947 14.853096
							}
						}
					}
					JOINT RightCollar
					{
						OFFSET 2.894404 0.000001 6.791374
						CHANNELS 3 Yrotation Xrotation Zrotation
						JOINT RightShoulder
						{
							OFFSET 13.574684 0.000001 0.000000
							CHANNELS 3 Yrotation Xrotation Zrotation
							JOINT RightElbow
							{
								OFFSET 23.923903 0.000002 0.000000
								CHANNELS 3 Yrotation Xrotation Zrotation
								JOINT RightWrist
								{
									OFFSET 19.846718 0.012767 0.000000
									CHANNELS 3 Yrotation Xrotation Zrotation
									End Site
									{
										OFFSET 14.973145 0.000001 0.000000
									}
								}
							}
						}
					}
					JOINT LeftCollar
					{
						OFFSET -2.894404 0.000001 6.791374
						CHANNELS 3 Yrotation Xrotation Zrotation
						JOINT LeftShoulder
						{
							OFFSET -13.574684 -0.000001 0.000000
							CHANNELS 3 Yrotation Xrotation Zrotation
							JOINT LeftElbow
							{
								OFFSET -23.923903 -0.000002 0.000000
								CHANNELS 3 Yrotation Xrotation Zrotation
								JOINT LeftWrist
								{
									OFFSET -19.846718 0.012763 0.000000
									CHANNELS 3 Yrotation Xrotation Zrotation
									End Site
									{
										OFFSET -14.973145 -0.000001 0.000000
									}
								}
							}
						}
					}
				}
			}
		}
	}
	JOINT RightHip
	{
		OFFSET 9.469263 0.004643 0.045487
		CHANNELS 3 Yrotation Xrotation Zrotation
		JOINT RightKnee
		{
			OFFSET 0.000000 0.002661 -40.478676
			CHANNELS 3 Yrotation Xrotation Zrotation
			JOINT RightAnkle
			{
				OFFSET 0.000000 0.049106 -35.224068
				CHANNELS 3 Yrotation Xrotation Zrotation
				JOINT RightToe
				{
					OFFSET -0.000001 12.539529 -6.151390
					CHANNELS 3 Yrotation Xrotation Zrotation
					End Site
					{
						OFFSET -0.000001 5.044994 -1.291870
					}
				}
			}
		}
	}
	JOINT LeftHip
	{
		OFFSET -9.469263 0.004641 0.045487
		CHANNELS 3 Yrotation Xrotation Zrotation
		JOINT LeftKnee
		{
			OFFSET 0.000000 0.002661 -40.478676
			CHANNELS 3 Yrotation Xrotation Zrotation
			JOINT LeftAnkle
			{
				OFFSET 0.000000 0.049106 -35.224068
				CHANNELS 3 Yrotation Xrotation Zrotation
				JOINT LeftToe
				{
					OFFSET -0.000001 12.539529 -6.151390
					CHANNELS 3 Yrotation Xrotation Zrotation
					End Site
					{
						OFFSET -0.000001 5.044994 -1.291870
					}
				}
			}
		}
	}
}
MOTION
Frames: 13
Frame Time: 0.016667
69.765877 21.274502 82.767784 -1.973802 2.928428 -94.478476 -1.258869 -2.281126 1.407198 -0.539854 -1.044708 0.616199 -0.539854 -1.044708 0.616199 -0.403827 -0.784077 0.461214 3.513053 -21.097054 -6.027246 4.616755 -2.947984 -9.910750 9.257338 6.107080 -1.393104 41.087788 -15.040934 -15.483498 -31.241938 -65.852688 95.459482 -56.750133 35.735621 37.885109 -9.283675 3.335466 -3.250027 -40.356685 -13.130826 21.532885 18.874111 -61.685829 -80.222689 30.054045 19.940281 -68.534835 4.778384 -4.251156 -22.346839 5.123930 1.014090 -4.283577 -11.489572 3.149936 -3.682495 0.986643 0.204799 -0.085075 2.975957 19.156992 24.051294 -4.123285 -0.615949 20.202340 3.487331 -16.927002 5.679094 -2.252226 1.846477 -0.218940 
69.829109 21.287764 82.764404 -1.951995 2.894321 -94.670541 -1.223205 -2.236728 1.409746 -0.527594 -1.028208 0.621244 -0.527594 -1.028209 0.621244 -0.394640 -0.771694 0.465033 3.494186 -20.863182 -6.123233 4.541824 -2.516815 -10.090412 9.263518 6.158098 -1.415854 41.096825 -15.067705 -15.552689 -31.175753 -65.854225 95.443848 -56.780066 35.742383 37.856108 -9.285571 3.361812 -3.260314 -40.385249 -13.143920 21.617026 19.036518 -61.643420 -80.336412 30.029340 19.962529 -68.491983 4.813802 -4.286645 -22.356920 5.112630 1.061001 -4.142005 -11.681343 3.093144 -3.577889 0.948043 0.176398 -0.088715 2.928061 18.570069 24.271229 -4.072061 -0.637366 20.051834 3.669339 -17.146807 5.499144 -2.272810 2.019362 -0.239095 
69.886246 21.317156 82.762131 -1.918962 2.861939 -94.854191 -1.173184 -2.177129 1.400254 -0.511319 -1.007482 0.614494 -0.511319 -1.007481 0.614493 -0.382466 -0.756126 0.460015 3.452147 -20.641605 -6.204123 4.429372 -2.109626 -10.250171 9.241071 6.249979 -1.435230 41.063241 -15.058812 -15.637242 -31.190455 -65.912295 95.548466 -56.749173 35.741813 37.859397 -9.322325 3.431077 -3.268793 -40.350377 -13.160782 21.740386 19.109464 -61.656685 -80.385767 30.044226 19.934805 -68.444492 4.828515 -4.290538 -22.295833 5.105844 1.079400 -4.038558 -11.834738 3.039245 -3.560955 0.890395 0.151102 -0.087594 2.882654 18.019820 24.483276 -4.051868 -0.681196 19.941349 3.896618 -17.387666 5.300839 -2.294220 2.187931 -0.258501 
69.948181 21.360489 82.759407 -1.928369 2.789359 -95.049780 -1.107087 -2.147261 1.386163 -0.483262 -0.994312 0.608391 -0.483262 -0.994312 0.608392 -0.361448 -0.746217 0.455496 3.404069 -20.427504 -6.271204 4.309922 -1.716622 -10.387278 9.237445 6.269695 -1.440409 41.012776 -14.958012 -15.676252 -31.272311 -65.975488 95.704194 -56.707652 35.756092 37.874615 -9.371688 3.483340 -3.297133 -40.312620 -13.154163 21.855545 19.105412 -61.688643 -80.373479 30.049643 19.933528 -68.411291 4.870889 -4.346113 -22.173171 5.078528 1.105776 -3.993595 -11.893922 2.989179 -3.523056 0.792028 0.128001 -0.087681 2.853061 17.410991 24.707969 -4.042630 -0.672360 19.899326 4.144175 -17.636397 5.093402 -2.283984 2.322377 -0.273915 
70.015732 21.413738 82.754967 -1.942496 2.683671 -95.260525 -1.024912 -2.130361 1.372505 -0.447167 -0.983768 0.602725 -0.447167 -0.983768 0.602726 -0.334397 -0.738268 0.451313 3.346194 -20.210198 -6.336134 4.172609 -1.318401 -10.524122 9.230800 6.255995 -1.431083 40.994655 -14.926673 -15.692199 -31.278551 -65.939568 95.753569 -56.714968 35.772002 37.855869 -9.395566 3.476367 -3.312314 -40.333193 -13.131086 21.927749 19.022485 -61.689408 -80.290151 30.090747 19.885363 -68.343453 4.938647 -4.405578 -22.000642 5.041425 1.119758 -4.069249 -11.881551 2.973411 -3.415901 0.670235 0.104137 -0.083994 2.842123 16.781315 24.944790 -4.034142 -0.628339 19.901740 4.373572 -17.864568 4.879549 -2.239848 2.410797 -0.280648 
70.082336 21.480089 82.750328 -1.939942 2.563414 -95.498250 -0.936623 -2.105804 1.370037 -0.410558 -0.970740 0.600648 -0.410558 -0.970740 0.600647 -0.306957 -0.728460 0.449823 3.302695 -20.009466 -6.378473 4.068768 -0.949749 -10.615949 9.234910 6.214234 -1.414336 40.996684 -14.897022 -15.677046 -31.281122 -65.903040 95.761581 -56.759214 35.815876 37.823313 -9.373307 3.445236 -3.292606 -40.389419 -13.138966 21.934114 18.864443 -61.647068 -80.112074 30.105012 19.812514 -68.317553 5.010463 -4.428684 -21.837348 4.980099 1.093631 -4.162672 -11.803415 2.985734 -3.272432 0.542681 0.079627 -0.085077 2.859657 16.170125 25.166404 -4.017348 -0.591385 19.911408 4.553247 -18.072409 4.674591 -2.184195 2.463696 -0.276310 
70.150093 21.548832 82.746262 -1.937577 2.446088 -95.743966 -0.846319 -2.079923 1.359294 -0.379374 -0.953084 0.600938 -0.379374 -0.953084 0.600937 -0.283587 -0.715188 0.450101 3.262000 -19.822186 -6.414867 3.972321 -0.605843 -10.696437 9.235573 6.201549 -1.397812 40.982866 -14.919447 -15.663442 -31.211980 -65.877427 95.718039 -56.811560 35.881309 37.793083 -9.346327 3.441952 -3.290254 -40.502479 -13.120317 22.002698 18.853344 -61.601756 -80.024580 30.054274 19.800807 -68.264394 5.091512 -4.451934 -21.780855 4.894268 1.055998 -4.197264 -11.684392 3.030678 -3.087350 0.422163 0.045276 -0.076893 2.870324 15.597924 25.306727 -3.975467 -0.601615 19.926484 4.712003 -18.232418 4.611169 -2.156581 2.476258 -0.275255 
70.222755 21.619188 82.743896 -1.902793 2.330810 -95.969670 -0.761094 -2.032180 1.334191 -0.350668 -0.925444 0.597573 -0.350668 -0.925444 0.597573 -0.262090 -0.694427 0.447639 3.209034 -19.667337 -6.436894 3.859624 -0.322551 -10.754625 9.268897 6.257990 -1.379282 40.931872 -14.944657 -15.698237 -31.167389 -65.907507 95.717513 -56.812315 35.919620 37.779361 -9.347939 3.519805 -3.320570 -40.592794 -13.105578 22.104854 18.751340 -61.630375 -79.844256 29.993567 19.760868 -68.226684 5.170179 -4.443968 -21.820446 4.815905 1.003503 -4.139893 -11.558385 3.080942 -2.919325 0.320507 0.017295 -0.068775 2.891818 15.109285 25.360303 -3.949370 -0.663221 19.935768 4.875894 -18.362120 4.638931 -2.146294 2.465957 -0.277315 
70.300606 21.691639 82.743141 -1.884833 2.207988 -96.201732 -0.681961 -1.984370 1.309944 -0.317449 -0.896642 0.590296 -0.317449 -0.896642 0.590297 -0.237216 -0.672789 0.442248 3.153331 -19.544788 -6.442900 3.748678 -0.098959 -10.784380 9.288796 6.350784 -1.371925 40.875185 -14.960259 -15.762431 -31.178659 -65.974232 95.800698 -56.845359 35.926464 37.732554 -9.379026 3.621922 -3.338544 -40.633311 -13.109391 22.233524 18.731594 -61.671376 -79.725431 29.908268 19.758752 -68.245802 5.246605 -4.454011 -21.843199 4.750365 0.946492 -4.048645 -11.437652 3.090848 -2.845756 0.241144 0.027363 -0.041641 2.916229 14.622093 25.434740 -3.938198 -0.717364 19.945380 5.046434 -18.470049 4.690238 -2.117102 2.431316 -0.278177 
70.378983 21.754013 82.740562 -1.890166 2.076592 -96.449286 -0.602195 -1.949495 1.299247 -0.286933 -0.880817 0.585472 -0.286933 -0.880817 0.585471 -0.214351 -0.660889 0.438682 3.113188 -19.427481 -6.436277 3.670251 0.116173 -10.786316 9.282966 6.401228 -1.367116 40.848472 -14.914138 -15.805177 -31.178280 -66.039105 95.897167 -56.886760 35.972947 37.696736 -9.391013 3.695429 -3.346366 -40.637368 -13.136868 22.298302 18.593691 -61.704701 -79.540538 29.876105 19.737804 -68.305594 5.326960 -4.500185 -21.805982 4.706816 0.905403 -4.006549 -11.308000 3.130556 -2.729924 0.156222 0.013710 -0.023420 2.918015 14.086385 25.626899 -3.925976 -0.700874 19.916705 5.237750 -18.602462 4.578468 -2.063558 2.399283 -0.278496 
70.463676 21.810797 82.731636 -1.907581 1.917297 -96.700275 -0.522222 -1.930103 1.295826 -0.251252 -0.871206 0.583549 -0.251251 -0.871206 0.583550 -0.187603 -0.653645 0.437296 3.084466 -19.291692 -6.445612 3.606473 0.365829 -10.814234 9.281407 6.421925 -1.373586 40.850740 -14.902978 -15.821787 -31.081507 -66.034761 95.894866 -56.884961 35.998365 37.677567 -9.402797 3.717890 -3.359388 -40.625771 -13.177290 22.342355 18.606294 -61.673842 -79.535155 29.886049 19.755655 -68.238788 5.439350 -4.576980 -21.719935 4.665324 0.890130 -4.014316 -11.170991 3.165769 -2.616777 0.081453 0.004015 -0.008426 2.922794 13.524535 25.884042 -3.905456 -0.646737 19.885249 5.465778 -18.745073 4.411043 -2.022816 2.369284 -0.277355 
70.545914 21.862259 82.717400 -1.890569 1.777974 -96.946571 -0.451180 -1.904274 1.292181 -0.220625 -0.858872 0.580862 -0.220625 -0.858873 0.580862 -0.164649 -0.644365 0.435329 3.061610 -19.149545 -6.453382 3.553408 0.627668 -10.837702 9.276671 6.437429 -1.372362 40.859705 -14.905974 -15.822965 -30.953253 -65.994620 95.865216 -56.887553 36.012442 37.666540 -9.421600 3.741696 -3.375705 -40.653505 -13.218886 22.359763 18.564913 -61.610232 -79.363376 29.877959 19.768710 -68.214568 5.527968 -4.618443 -21.530491 4.625488 0.876353 -4.010670 -11.031530 3.196926 -2.578864 0.017915 -0.015624 -0.001447 2.900302 13.007597 26.141770 -3.877868 -0.581078 19.872649 5.757889 -18.867221 4.355996 -2.035386 2.317336 -0.274901 
70.623535 21.911121 82.699234 -1.863251 1.610072 -97.213557 -0.367039 -1.877096 1.295846 -0.184221 -0.845245 0.583471 -0.184222 -0.845245 0.583471 -0.137357 -0.634111 0.437341 3.036103 -19.011944 -6.460693 3.495842 0.880909 -10.861276 9.280629 6.453716 -1.369571 40.836943 -14.911589 -15.813023 -30.905991 -65.963549 95.923347 -56.917428 36.041003 37.647268 -9.419804 3.770700 -3.373129 -40.679971 -13.250674 22.355918 18.519414 -61.574961 -79.215066 29.864838 19.744216 -68.160507 5.658293 -4.644031 -21.271793 4.556713 0.862249 -4.025777 -10.871902 3.218221 -2.564980 -0.041392 -0.030925 0.002271 2.911679 12.532832 26.384416 -3.836272 -0.546120 19.884801 6.143690 -18.943096 4.446852 -2.130390 2.229609 -0.271861 
